# xmcd
#
# Track frame offsets: 
#        150
#        15276
#        42327
#        62234
#        87029
#        103880
#        140473
#        157244
#        170127
#        189007
#        211487
#        227444
#        249987
#        266393
#
# Disc length: 3759 seconds
#
# Revision: 2
# Processed by: cddbd v1.5.2PL0 Copyright (c) Steve Scherf et al.
# Submitted via: ExactAudioCopy v1.0b1
#
DISCID=b60ead0e
DTITLE=Kid Ory - Quadromania - Mahagony Hall Stomp - CD 2
DYEAR=1900
DGENRE=Jazz
TTITLE0=Do What Ory Say
TTITLE1=Careless Love
TTITLE2=Eh! La Bas
TTITLE3=Basin Street Blues
TTITLE4=Rifle Rangers
TTITLE5=Blues For Jimmie
TTITLE6=High Society
TTITLE7=Boogie Woogie
TTITLE8=Sister Kate
TTITLE9=Memphis
TTITLE10=Oh! Didnt He Ramble
TTITLE11=Without You For An Inspiration
TTITLE12=All the Girls So Crazy
TTITLE13=Go Back Where You Stayed Last Night
EXTD=
EXTT0=
EXTT1=
EXTT2=
EXTT3=
EXTT4=
EXTT5=
EXTT6=
EXTT7=
EXTT8=
EXTT9=
EXTT10=
EXTT11=
EXTT12=
EXTT13=
PLAYORDER=
